<mxfile host="app.diagrams.net" modified="2022-10-05T12:14:39.425Z" agent="5.0 (Windows NT 10.0; Win64; x64) AppleWebKit/537.36 (KHTML, like Gecko) Chrome/106.0.0.0 Safari/537.36" etag="055mJych21K3UNVqvFtg" version="20.4.0" type="github">
  <diagram id="bf2b7pworcpt0yK1GMKy" name="Страница 1">
    <mxGraphModel dx="1150" dy="1960" grid="1" gridSize="10" guides="1" tooltips="1" connect="1" arrows="1" fold="1" page="1" pageScale="1" pageWidth="1169" pageHeight="827" math="0" shadow="0">
      <root>
        <mxCell id="0" />
        <mxCell id="1" parent="0" />
        <mxCell id="DmE_8VsUCve6TZygcGQC-1" value="" style="rounded=0;whiteSpace=wrap;html=1;" vertex="1" parent="1">
          <mxGeometry x="40" y="10" width="1080" height="60" as="geometry" />
        </mxCell>
        <mxCell id="DmE_8VsUCve6TZygcGQC-2" value="Логотип" style="rounded=0;whiteSpace=wrap;html=1;" vertex="1" parent="1">
          <mxGeometry x="50" y="20" width="100" height="40" as="geometry" />
        </mxCell>
        <mxCell id="DmE_8VsUCve6TZygcGQC-3" value="Поиск" style="rounded=0;whiteSpace=wrap;html=1;" vertex="1" parent="1">
          <mxGeometry x="430" y="20" width="310" height="40" as="geometry" />
        </mxCell>
        <mxCell id="DmE_8VsUCve6TZygcGQC-4" value="&lt;span style=&quot;font-size: 36px;&quot;&gt;Информация о пользователе&lt;/span&gt;" style="rounded=0;whiteSpace=wrap;html=1;" vertex="1" parent="1">
          <mxGeometry x="40" y="110" width="1080" height="180" as="geometry" />
        </mxCell>
        <mxCell id="DmE_8VsUCve6TZygcGQC-7" value="&lt;span style=&quot;font-size: 36px;&quot;&gt;Информация о деятельности пользователя&lt;/span&gt;" style="rounded=0;whiteSpace=wrap;html=1;" vertex="1" parent="1">
          <mxGeometry x="40" y="310" width="1080" height="500" as="geometry" />
        </mxCell>
      </root>
    </mxGraphModel>
  </diagram>
</mxfile>
